<?xml version="1.0" encoding="iso-8859-1"?>
<!-- Generator: Adobe Illustrator 19.0.0, SVG Export Plug-In . SVG Version: 6.00 Build 0)  -->
<svg version="1.1" id="Capa_1" xmlns="http://www.w3.org/2000/svg" xmlns:xlink="http://www.w3.org/1999/xlink" x="0px" y="0px"
	 viewBox="0 0 512 512" style="enable-background:new 0 0 512 512;" xml:space="preserve">
<g>
	<g>
		<path d="M358.822,20.148H152.924c-16.534,0-29.985,13.451-29.985,29.985v151.925c0,16.534,13.451,29.985,29.985,29.985h205.898
			c16.534,0,29.985-13.451,29.985-29.985V50.133C388.807,33.599,375.356,20.148,358.822,20.148z M368.817,202.058
			c0,5.511-4.484,9.995-9.995,9.995H152.924c-5.511,0-9.995-4.484-9.995-9.995V50.133c0-5.511,4.484-9.995,9.995-9.995h205.898
			c5.511,0,9.995,4.484,9.995,9.995V202.058z"/>
	</g>
</g>
<g>
	<g>
		<path d="M292.855,156.081H174.389c-5.519,0-9.995,4.475-9.995,9.995s4.476,9.995,9.995,9.995h118.465
			c5.519,0,9.995-4.475,9.995-9.995S298.374,156.081,292.855,156.081z"/>
	</g>
</g>
<g>
	<g>
		<path d="M342.21,159.008c-1.859-1.859-4.439-2.929-7.066-2.929c-2.629,0-5.207,1.07-7.065,2.929
			c-1.859,1.859-2.93,4.438-2.93,7.066c0,2.629,1.069,5.207,2.93,7.067c1.858,1.859,4.437,2.929,7.065,2.929
			c2.629,0,5.207-1.069,7.066-2.929s2.929-4.438,2.929-7.067C345.139,163.446,344.07,160.867,342.21,159.008z"/>
	</g>
</g>
<g>
	<g>
		<path d="M335.145,60.128H174.389c-5.519,0-9.995,4.475-9.995,9.995s4.476,9.995,9.995,9.995h160.755
			c5.519,0,9.995-4.475,9.995-9.995S340.664,60.128,335.145,60.128z"/>
	</g>
</g>
<g>
	<g>
		<path d="M335.145,108.104H174.389c-5.519,0-9.995,4.475-9.995,9.995s4.476,9.995,9.995,9.995h160.755
			c5.519,0,9.995-4.475,9.995-9.995S340.664,108.104,335.145,108.104z"/>
	</g>
</g>
<g>
	<g>
		<path d="M117.941,343.925H29.985C13.451,343.925,0,357.377,0,373.91v87.956c0,16.534,13.451,29.985,29.985,29.985h87.956
			c16.534,0,29.985-13.451,29.985-29.985V373.91C147.927,357.377,134.475,343.925,117.941,343.925z M127.937,461.867
			c0,5.511-4.484,9.995-9.995,9.995H29.985c-5.511,0-9.995-4.484-9.995-9.995V373.91c0-5.511,4.484-9.995,9.995-9.995h87.956
			c5.511,0,9.995,4.484,9.995,9.995V461.867z"/>
	</g>
</g>
<g>
	<g>
		<path d="M299.978,343.925h-87.956c-16.534,0-29.985,13.451-29.985,29.985v87.956c0,16.534,13.451,29.985,29.985,29.985h87.956
			c16.534,0,29.985-13.451,29.985-29.985V373.91C329.963,357.377,316.512,343.925,299.978,343.925z M309.973,461.867
			c0,5.511-4.484,9.995-9.995,9.995h-87.956c-5.511,0-9.995-4.484-9.995-9.995V373.91c0-5.511,4.484-9.995,9.995-9.995h87.956
			c5.511,0,9.995,4.484,9.995,9.995V461.867z"/>
	</g>
</g>
<g>
	<g>
		<path d="M482.015,343.925h-87.956c-16.534,0-29.985,13.451-29.985,29.985v87.956c0,16.534,13.451,29.985,29.985,29.985h87.956
			c16.534,0,29.985-13.451,29.985-29.985V373.91C512,357.377,498.549,343.925,482.015,343.925z M492.01,461.867
			c0,5.511-4.484,9.995-9.995,9.995h-87.956c-5.511,0-9.995-4.484-9.995-9.995V373.91c0-5.511,4.484-9.995,9.995-9.995h87.956
			c5.511,0,9.995,4.484,9.995,9.995V461.867z"/>
	</g>
</g>
<g>
	<g>
		<path d="M428.042,266.153H265.995v-12.121c0-5.52-4.476-9.995-9.995-9.995s-9.995,4.475-9.995,9.995v12.121H201.9
			c-5.519,0-9.995,4.476-9.995,9.995c0,5.519,4.476,9.995,9.995,9.995h44.105v27.255c0,5.519,4.476,9.995,9.995,9.995
			s9.995-4.476,9.995-9.995v-27.255h162.047v31.191c0,5.519,4.476,9.995,9.995,9.995c5.519,0,9.995-4.476,9.995-9.995v-31.191
			C448.032,275.121,439.064,266.153,428.042,266.153z"/>
	</g>
</g>
<g>
	<g>
		<path d="M127.937,266.153H83.958c-11.023,0-19.99,8.968-19.99,19.99v31.191c0,5.52,4.476,9.995,9.995,9.995
			c5.519,0,9.995-4.476,9.995-9.995v-31.191h43.978c5.519,0,9.995-4.476,9.995-9.995
			C137.932,270.629,133.456,266.153,127.937,266.153z"/>
	</g>
</g>
<g>
	<g>
		<path d="M171.464,269.083c-1.86-1.859-4.438-2.929-7.066-2.929c-2.629,0-5.207,1.068-7.065,2.929
			c-1.859,1.859-2.93,4.438-2.93,7.066c0,2.629,1.069,5.207,2.93,7.065c1.858,1.859,4.437,2.93,7.065,2.93
			c2.629,0,5.207-1.069,7.066-2.93c1.859-1.858,2.929-4.437,2.929-7.065C174.392,273.51,173.324,270.943,171.464,269.083z"/>
	</g>
</g>
<g>
</g>
<g>
</g>
<g>
</g>
<g>
</g>
<g>
</g>
<g>
</g>
<g>
</g>
<g>
</g>
<g>
</g>
<g>
</g>
<g>
</g>
<g>
</g>
<g>
</g>
<g>
</g>
<g>
</g>
</svg>
